<?xml version="1.0" standalone="no"?>
<!DOCTYPE svg PUBLIC "-//W3C//DTD SVG 20010904//EN"
 "http://www.w3.org/TR/2001/REC-SVG-20010904/DTD/svg10.dtd">
<svg version="1.0" xmlns="http://www.w3.org/2000/svg"
 width="260.000000pt" height="260.000000pt" viewBox="0 0 260.000000 260.000000"
 preserveAspectRatio="xMidYMid meet">
<metadata>
Created by potrace 1.11, written by Peter Selinger 2001-2013
</metadata>
<g transform="translate(0.000000,260.000000) scale(0.100000,-0.100000)"
fill="#000000" stroke="none">
<path d="M541 2498 c0 -57 0 -113 0 -125 l-1 -23 -208 0 -208 0 0 -1175 0
-1175 1173 0 1173 0 0 1175 0 1175 -211 0 -210 0 1 53 c1 28 1 85 1 125 l-1
72 -125 0 -125 0 0 -125 0 -125 -503 0 -504 0 1 125 1 125 -127 0 -126 0 -1
-102z"/>
</g>
</svg>
